<?xml version="1.0" standalone="no"?>
<!DOCTYPE svg PUBLIC "-//W3C//DTD SVG 20010904//EN"
 "http://www.w3.org/TR/2001/REC-SVG-20010904/DTD/svg10.dtd">
<svg version="1.0" xmlns="http://www.w3.org/2000/svg"
 width="824.000000pt" height="820.000000pt" viewBox="0 0 824.000000 820.000000"
 preserveAspectRatio="xMidYMid meet">

<g transform="translate(0.000000,820.000000) scale(0.100000,-0.100000)"
fill="tomato" stroke="none">
<path d="M0 4100 l0 -4100 4120 0 4120 0 0 4100 0 4100 -4120 0 -4120 0 0
-4100z m4551 3031 c365 -58 628 -143 942 -303 498 -254 927 -649 1215 -1120
225 -369 361 -751 429 -1203 13 -93 17 -183 17 -395 0 -293 -8 -374 -60 -628
-167 -810 -685 -1542 -1396 -1974 -308 -186 -632 -316 -958 -381 -253 -52
-349 -61 -620 -62 -277 0 -373 9 -614 57 -1197 237 -2156 1199 -2390 2398 -44
225 -50 303 -51 590 0 295 7 364 56 614 140 697 553 1362 1115 1793 440 338
930 544 1464 617 170 24 183 24 465 21 200 -3 289 -8 386 -24z"/>
<path d="M3975 6544 c-213 -16 -402 -50 -580 -105 -848 -261 -1485 -958 -1669
-1829 -39 -186 -50 -293 -50 -500 0 -207 11 -314 50 -500 219 -1034 1076
-1809 2122 -1921 162 -17 513 -7 667 20 394 67 753 224 1085 474 123 92 346
316 438 439 254 339 417 719 479 1118 14 88 18 174 18 370 0 196 -4 282 -18
370 -98 625 -439 1198 -937 1571 -414 311 -886 476 -1400 492 -85 2 -177 3
-205 1z m855 -2759 l-1025 -1025 -720 720 -720 720 218 217 217 218 503 -503
503 -503 805 809 804 810 220 -219 220 -219 -1025 -1025z"/>
</g>
</svg>
