<svg version="1.0" xmlns="http://www.w3.org/2000/svg"
 width="140.000000pt" height="128.000000pt" viewBox="0 0 140.000000 128.000000"
 preserveAspectRatio="xMidYMid meet">

<g transform="translate(0.000000,128.000000) scale(0.100000,-0.100000)"
fill="#000000" stroke="none">
<path d="M622 1239 c-82 -10 -121 -23 -206 -67 -133 -69 -247 -212 -291 -367
-23 -77 -23 -220 -1 -304 52 -202 215 -367 421 -426 77 -23 220 -23 304 -1
202 52 367 215 426 421 23 77 23 220 1 304 -75 289 -358 479 -654 440z m209
-105 c158 -47 280 -156 340 -305 31 -76 38 -224 14 -304 -47 -163 -153 -283
-306 -347 -46 -19 -73 -22 -174 -22 -102 -1 -128 3 -177 22 -138 55 -248 163
-299 292 -45 117 -36 287 23 405 65 130 209 243 338 268 60 11 189 6 241 -9z"/>
<path d="M940 843 c-8 -3 -88 -78 -177 -166 l-162 -161 -69 66 c-54 53 -74 66
-91 61 -28 -7 -45 -38 -32 -60 15 -29 177 -183 192 -183 7 0 100 87 206 193
164 163 192 195 186 215 -6 26 -31 42 -53 35z"/>
</g>
</svg>
